<svg width="86" height="33" viewBox="0 0 86 33" fill="none" xmlns="http://www.w3.org/2000/svg">
<path d="M0 10.5C0 9.11929 1.11929 8 2.5 8C3.88071 8 5 9.11929 5 10.5V33H0V10.5Z" fill="#1767B3"/>
<path d="M9 2.5C9 1.11929 10.1193 0 11.5 0C12.8807 0 14 1.11929 14 2.5V33H9V2.5Z" fill="#1767B3"/>
<path d="M18 7.5C18 6.11929 19.1193 5 20.5 5C21.8807 5 23 6.11929 23 7.5V33H18V7.5Z" fill="#1767B3"/>
<path d="M27 5.5C27 4.11929 28.1193 3 29.5 3C30.8807 3 32 4.11929 32 5.5V33H27V5.5Z" fill="#1767B3"/>
<path d="M36 14.5C36 13.1193 37.1193 12 38.5 12C39.8807 12 41 13.1193 41 14.5V33H36V14.5Z" fill="#1767B3"/>
<path d="M45 10.5C45 9.11929 46.1193 8 47.5 8C48.8807 8 50 9.11929 50 10.5V33H45V10.5Z" fill="#1767B3"/>
<path d="M54 2.5C54 1.11929 55.1193 0 56.5 0C57.8807 0 59 1.11929 59 2.5V33H54V2.5Z" fill="#1767B3"/>
<path d="M63 7.5C63 6.11929 64.1193 5 65.5 5C66.8807 5 68 6.11929 68 7.5V33H63V7.5Z" fill="#1767B3"/>
<path d="M72 5.5C72 4.11929 73.1193 3 74.5 3C75.8807 3 77 4.11929 77 5.5V33H72V5.5Z" fill="#1767B3"/>
<path d="M81 14.5C81 13.1193 82.1193 12 83.5 12C84.8807 12 86 13.1193 86 14.5V33H81V14.5Z" fill="#1767B3"/>
</svg>
