<svg width="112" height="39" viewBox="0 0 112 39" fill="none" xmlns="http://www.w3.org/2000/svg">
<rect y="7" width="8" height="18" rx="1" fill="#1767B3"/>
<rect x="3" width="2" height="32" rx="1" fill="#1767B3"/>
<rect x="13" y="14" width="8" height="18" rx="1" fill="#1767B3"/>
<rect x="16" y="7" width="2" height="32" rx="1" fill="#1767B3"/>
<rect x="26" y="7" width="8" height="18" rx="1" fill="#1767B3"/>
<rect x="29" width="2" height="32" rx="1" fill="#1767B3"/>
<rect x="39" y="14" width="8" height="18" rx="1" fill="#1767B3"/>
<rect x="42" y="7" width="2" height="32" rx="1" fill="#1767B3"/>
<rect x="52" y="7" width="8" height="18" rx="1" fill="#1767B3"/>
<rect x="55" width="2" height="32" rx="1" fill="#1767B3"/>
<rect x="65" y="14" width="8" height="18" rx="1" fill="#1767B3"/>
<rect x="68" y="7" width="2" height="32" rx="1" fill="#1767B3"/>
<rect x="78" y="7" width="8" height="18" rx="1" fill="#1767B3"/>
<rect x="81" width="2" height="32" rx="1" fill="#1767B3"/>
<rect x="91" y="14" width="8" height="18" rx="1" fill="#1767B3"/>
<rect x="94" y="7" width="2" height="32" rx="1" fill="#1767B3"/>
<rect x="104" y="7" width="8" height="18" rx="1" fill="#1767B3"/>
<rect x="107" width="2" height="32" rx="1" fill="#1767B3"/>
</svg>
